<?xml version="1.0" encoding="UTF-8"?>
<svg width="128px" height="128px" viewBox="0 0 128 128" version="1.1" xmlns="http://www.w3.org/2000/svg" xmlns:xlink="http://www.w3.org/1999/xlink">
    <title>twitter</title>
    <g id="twitter" stroke="none" stroke-width="1" fill="none" fill-rule="evenodd">
        <g id="iconmonstr-twitter-1" transform="translate(0.000000, 12.000000)" fill="#000000" fill-rule="nonzero">
            <path d="M128,12.3146667 C123.290667,14.4053333 118.229333,15.8133333 112.917333,16.448 C118.341333,13.2 122.506667,8.05333333 124.464,1.92 C119.392,4.928 113.770667,7.11466667 107.786667,8.29333333 C103.002667,3.18933333 96.1706667,0 88.6186667,0 C71.664,0 59.2053333,15.8186667 63.0346667,32.24 C41.216,31.1466667 21.8666667,20.6933333 8.912,4.80533333 C2.032,16.608 5.344,32.048 17.0346667,39.8666667 C12.736,39.728 8.68266667,38.5493333 5.14666667,36.5813333 C4.85866667,48.7466667 13.5786667,60.128 26.208,62.6613333 C22.512,63.664 18.464,63.8986667 14.3466667,63.1093333 C17.6853333,73.5413333 27.3813333,81.1306667 38.88,81.344 C27.84,90 13.9306667,93.8666667 0,92.224 C11.6213333,99.6746667 25.4293333,104.021333 40.256,104.021333 C89.0133333,104.021333 116.56,62.8426667 114.896,25.9093333 C120.026667,22.2026667 124.48,17.5786667 128,12.3146667 Z" id="Path"></path>
        </g>
    </g>
</svg>