<?xml version="1.0" encoding="UTF-8"?>
<svg width="512px" height="512px" viewBox="0 0 512 512" version="1.1" xmlns="http://www.w3.org/2000/svg" xmlns:xlink="http://www.w3.org/1999/xlink">
    <title>Artboard</title>
    <g id="Artboard" stroke="none" stroke-width="1" fill="none" fill-rule="evenodd">
        <g id="poker-playing-cards-svgrepo-com" transform="translate(0.000000, 21.000000)" fill="#000000" fill-rule="nonzero">
            <path d="M463.199098,427.219582 L463.360254,427.219582 C464.160718,424.281485 465.051499,420.748184 465.942281,417.742488 L470.141175,405.259697 L456.166703,405.259697 L460.44706,417.750731 C461.498998,420.822378 462.380925,424.289729 463.199098,427.219582 Z" id="Path"></path>
            <path d="M240.514532,83.8468338 L240.348127,83.8468338 C239.547967,86.783608 238.653984,90.3169658 237.772392,93.3213088 L233.573323,105.806719 L247.547795,105.806719 L243.263754,93.3213088 C242.208676,90.2411568 241.312922,86.783608 240.514532,83.8468338 Z" id="Path"></path>
            <path d="M53.5625053,424.057392 C55.9043654,438.126988 63.894344,450.508233 76.0797178,458.897022 C85.8374683,465.620634 97.3314857,469.142999 109.173807,469.142999 C112.110758,469.142999 115.080965,468.924506 118.047671,468.479245 L195.278297,457.005075 C198.388525,457.518202 201.549512,457.811181 204.743753,457.811181 C207.680704,457.811181 210.650911,457.600964 213.617617,457.155703 L220.616944,456.112898 C226.748136,458.852331 233.539181,460.525785 240.774793,460.525785 L464.698976,460.525785 C490.819993,460.525785 512,440.48737 512,415.784469 L512,93.6701679 C512,68.9589912 490.818243,48.928852 464.698976,48.928852 L429.557073,48.928852 L428.918224,45.0787483 C426.579865,31.0091521 418.589886,18.6361837 406.404512,10.2391177 C394.22964,1.85032782 379.350602,-1.56279069 364.436559,0.665171251 L269.601726,14.7529752 L47.6465956,44.868532 C16.9311224,49.4337022 -4.1386175,76.7849972 0.688624789,105.849472 L53.5625053,424.057392 Z M255.057307,127.36914 L250.24191,112.921792 L233.425223,112.921792 L228.846876,127.36914 L218.821577,127.36914 L235.880504,76.421484 L248.26938,76.421484 L265.560166,127.36914 L255.057307,127.36914 Z M450.273177,384.230239 L455.088217,398.669302 L471.903659,398.669302 L476.481667,384.230239 L486.506224,384.230239 L469.445099,435.177895 L457.057141,435.177895 L439.767635,384.230239 L450.273177,384.230239 L450.273177,384.230239 Z M435.518672,219.2599 C435.518672,219.2599 436.561209,272.301638 364.260363,328.575258 C356.17873,334.852786 342.362141,334.859379 334.317394,328.548888 C262.543496,272.285158 267.769069,219.2599 267.769069,219.2599 C267.769069,195.47484 288.318303,176.193977 313.668039,176.193977 C329.464198,176.193977 343.387934,183.692731 351.638191,195.099078 C359.89723,183.692731 373.829748,176.193977 389.617125,176.193977 C414.96686,176.192329 435.518672,195.47484 435.518672,219.2599 Z M144.879935,50.3285844 L366.154735,17.4373634 C376.217614,15.9157408 386.32601,18.2453632 394.583944,23.9278535 C402.834875,29.6119996 408.258465,37.9949974 409.839325,47.5370113 L410.024896,48.7142405 L239.628209,48.7142405 C213.501138,48.7142405 192.307468,68.7569403 192.307468,93.4688191 L192.307468,415.68026 C192.307468,424.146045 194.929978,431.976027 199.254145,438.718189 L194.520321,439.423533 C189.786496,438.314189 185.271505,436.355452 181.21169,433.5556 C172.953757,427.871454 167.538919,419.490112 165.952808,409.946442 L113.063169,91.6441966 C109.79641,71.9541689 124.067912,53.4132229 144.879935,50.3285844 Z M49.177977,62.8527393 L105.793936,55.193294 C96.93182,66.3107244 92.6356204,80.6300541 95.1033518,95.4219036 L148.011583,413.047668 C150.025701,425.128312 156.246696,435.950004 165.709544,444.062143 L114.08159,451.723241 C103.977727,453.200278 93.8878759,450.908722 85.6387524,445.245095 C77.3773691,439.573206 71.9602696,431.201677 70.3734955,421.686848 L17.4617612,104.062736 C14.1936371,84.43169 28.4728523,65.9323782 49.177977,62.8527393 Z" id="Shape"></path>
        </g>
    </g>
</svg>